<svg width="254.5150390625px" height="121.61758422851562px" xmlns="http://www.w3.org/2000/svg" viewBox="122.74248046875 14.191207885742188 254.5150390625 121.61758422851562" style="background: rgba(0, 0, 0, 0);" preserveAspectRatio="xMidYMid"><defs>
  <filter id="editing-scratch" x="-100%" y="-100%" width="300%" height="300%">
    <!-- COLOR -->
    <feFlood flood-color="#ddd" flood-opacity="0.75" result="COLOR-blu"></feFlood>
    <feFlood flood-color="#666" flood-opacity="0.4" result="COLOR-red"></feFlood>
    <!-- COLOR END -->

    <!-- Texture -->
    <feTurbulence baseFrequency=".05" type="fractalNoise" numOctaves="3" seed="0" result="Texture_10"></feTurbulence>
    <feColorMatrix type="matrix" values="0 0 0 0 0,
    0 0 0 0 0,
    0 0 0 0 0,
    0 0 0 -2.1 1.1" in="Texture_10" result="Texture_20"></feColorMatrix>

    <feColorMatrix result="Texture_30" type="matrix" values="0 0 0 0 0,
    0 0 0 0 0,
    0 0 0 0 0,
    0 0 0 -1.7 1.8" in="Texture_10"></feColorMatrix>
    <!-- Texture -->

    <!-- FILL -->
    <feOffset dx="-3" dy="4" in="SourceAlpha" result="FILL_10"></feOffset>
    <feDisplacementMap scale="17" in="FILL_10" in2="Texture_10" result="FILL_20"></feDisplacementMap>
    <feComposite operator="in" in="Texture_30" in2="FILL_20" result="FILL_40"></feComposite>
    <feComposite operator="in" in="COLOR-blu" in2="FILL_40" result="FILL_50"></feComposite>
    <!-- FILL END-->

    <!-- OUTLINE -->
    <feMorphology operator="dilate" radius="3" in="SourceGraphic" result="OUTLINE_10"></feMorphology>
    <feComposite operator="out" in="OUTLINE_10" in2="SourceGraphic" result="OUTLINE_20"></feComposite>
    <feDisplacementMap scale="7" in="OUTLINE_20" in2="Texture_10" result="OUTLINE_30"></feDisplacementMap>
    <feComposite operator="arithmetic" k2="-1" k3="1" in="Texture_20" in2="OUTLINE_30" result="OUTLINE_40"></feComposite>
    <!-- OUTLINE END-->

    <!-- BEVEL OUTLINE -->
    <feConvolveMatrix order="8,8" divisor="1" kernelMatrix="1 0 0 0 0 0 0 0 0 1 0 0 0 0 0 0 0 0 1 0 0 0 0 0 0 0 0 1 0 0 0 0 0 0 0 0 1 0 0 0 0 0 0 0 0 1 0 0 0 0 0 0 0 0 1 0 0 0 0 0 0 0 0 1 " in="SourceGraphic" result="BEVEL_10"></feConvolveMatrix>
    <feMorphology operator="dilate" radius="2" in="BEVEL_10" result="BEVEL_20"></feMorphology>
    <feComposite operator="out" in="BEVEL_20" in2="BEVEL_10" result="BEVEL_30"></feComposite>
    <feDisplacementMap scale="7" in="BEVEL_30" in2="Texture_10" result="BEVEL_40"></feDisplacementMap>
    <feComposite operator="arithmetic" k2="-1" k3="1" in="Texture_20" in2="BEVEL_40" result="BEVEL_50"></feComposite>
    <feOffset dx="-7" dy="-7" in="BEVEL_50" result="BEVEL_60"></feOffset>
    <feComposite operator="out" in="BEVEL_60" in2="OUTLINE_10" result="BEVEL_70"></feComposite>
    <!-- BEVEL OUTLINE END -->

    <!-- BEVEL FILL -->
    <feOffset dx="-9" dy="-9" in="BEVEL_10" result="BEVEL-FILL_10"></feOffset>
    <feComposite operator="out" in="BEVEL-FILL_10" in2="OUTLINE_10" result="BEVEL-FILL_20"></feComposite>
    <feDisplacementMap scale="17" in="BEVEL-FILL_20" in2="Texture_10" result="BEVEL-FILL_30"></feDisplacementMap>
    <feComposite operator="in" in="COLOR-red" in2="BEVEL-FILL_30" result="BEVEL-FILL_50"></feComposite> <!-- -->
    <!-- BEVEL FILL END-->

    <feMerge result="merge2">
     <feMergeNode in="BEVEL-FILL_50"></feMergeNode>
     <feMergeNode in="BEVEL_70"></feMergeNode>
     <feMergeNode in="FILL_50"></feMergeNode>
      <feMergeNode in="OUTLINE_40"></feMergeNode>
    </feMerge>
  </filter>
</defs>
<g filter="url(#editing-scratch)"><g transform="translate(164.59000089764595, 97.43000030517578)"><path d="M0.45-0.32L0.45-0.32L8.51-42.24L8.51-42.24Q16.06-42.88 20.93-42.88L20.93-42.88L20.93-42.88Q25.79-42.88 28.93-42.46L28.93-42.46L28.93-42.46Q32.06-42.05 34.18-40.96L34.18-40.96L34.18-40.96Q38.40-38.91 38.40-33.28L38.40-33.28L38.40-33.28Q38.40-30.02 35.58-27.26L35.58-27.26L35.58-27.26Q32.96-24.77 30.08-24.19L30.08-24.19L30.08-24.19Q33.15-23.68 35.33-21.38L35.33-21.38L35.33-21.38Q37.63-18.94 37.63-15.17L37.63-15.17L37.63-15.17Q37.63-7.87 32.19-3.62L32.19-3.62L32.19-3.62Q26.75 0.64 16.06 0.64L16.06 0.64L16.06 0.64Q8.70 0.64 0.45-0.32ZM17.86-20.61L14.66-4.03L14.66-4.03Q15.23-3.97 15.36-3.97L15.36-3.97L15.94-3.97L15.94-3.97Q21.18-3.97 23.42-7.42L23.42-7.42L23.42-7.42Q25.09-10.11 25.09-15.04L25.09-15.04L25.09-15.04Q25.09-17.66 23.39-19.07L23.39-19.07L23.39-19.07Q21.70-20.48 17.86-20.61L17.86-20.61ZM27.58-33.22L27.58-33.22L27.58-33.22Q27.58-38.53 22.46-38.53L22.46-38.53L21.89-38.53L21.89-38.53Q21.63-38.53 21.25-38.46L21.25-38.46L18.69-24.96L19.33-24.96L19.33-24.96Q27.58-25.15 27.58-33.22ZM42.82-15.62L42.82-15.62L42.82-15.62Q42.82-27.71 49.09-35.33L49.09-35.33L49.09-35.33Q55.74-43.58 67.33-43.58L67.33-43.58L67.33-43.58Q75.71-43.58 79.94-39.52L79.94-39.52L79.94-39.52Q84.16-35.46 84.16-26.88L84.16-26.88L84.16-26.88Q84.16-13.82 77.50-6.21L77.50-6.21L77.50-6.21Q70.91 1.28 59.84 1.28L59.84 1.28L59.84 1.28Q51.20 1.28 47.01-3.04L47.01-3.04L47.01-3.04Q42.82-7.36 42.82-15.62ZM59.65-28.86L59.65-28.86L59.65-28.86Q56.77-17.34 56.77-8.26L56.77-8.26L56.77-8.26Q56.77-6.08 57.50-4.67L57.50-4.67L57.50-4.67Q58.24-3.26 60.19-3.26L60.19-3.26L60.19-3.26Q62.14-3.26 63.36-4.19L63.36-4.19L63.36-4.19Q64.58-5.12 65.54-7.23L65.54-7.23L65.54-7.23Q67.07-10.69 68.51-18.02L68.51-18.02L68.51-18.02Q69.95-25.34 70.08-28.38L70.08-28.38L70.08-28.38Q70.21-31.42 70.21-33.73L70.21-33.73L70.21-33.73Q70.21-36.03 69.50-37.50L69.50-37.50L69.50-37.50Q68.80-38.98 66.91-38.98L66.91-38.98L66.91-38.98Q65.02-38.98 63.74-37.82L63.74-37.82L63.74-37.82Q61.38-35.65 59.65-28.86ZM86.66-0.32L86.66-0.32L94.72-42.24L94.72-42.24Q102.27-42.88 107.14-42.88L107.14-42.88L107.14-42.88Q112-42.88 115.14-42.46L115.14-42.46L115.14-42.46Q118.27-42.05 120.38-40.96L120.38-40.96L120.38-40.96Q124.61-38.91 124.61-33.28L124.61-33.28L124.61-33.28Q124.61-30.02 121.79-27.26L121.79-27.26L121.79-27.26Q119.17-24.77 116.29-24.19L116.29-24.19L116.29-24.19Q119.36-23.68 121.54-21.38L121.54-21.38L121.54-21.38Q123.84-18.94 123.84-15.17L123.84-15.17L123.84-15.17Q123.84-7.87 118.40-3.62L118.40-3.62L118.40-3.62Q112.96 0.64 102.27 0.64L102.27 0.64L102.27 0.64Q94.91 0.64 86.66-0.32ZM104.06-20.61L100.86-4.03L100.86-4.03Q101.44-3.97 101.57-3.97L101.57-3.97L102.14-3.97L102.14-3.97Q107.39-3.97 109.63-7.42L109.63-7.42L109.63-7.42Q111.30-10.11 111.30-15.04L111.30-15.04L111.30-15.04Q111.30-17.66 109.60-19.07L109.60-19.07L109.60-19.07Q107.90-20.48 104.06-20.61L104.06-20.61ZM113.79-33.22L113.79-33.22L113.79-33.22Q113.79-38.53 108.67-38.53L108.67-38.53L108.10-38.53L108.10-38.53Q107.84-38.53 107.46-38.46L107.46-38.46L104.90-24.96L105.54-24.96L105.54-24.96Q113.79-25.15 113.79-33.22ZM129.02-15.62L129.02-15.62L129.02-15.62Q129.02-27.71 135.30-35.33L135.30-35.33L135.30-35.33Q141.95-43.58 153.54-43.58L153.54-43.58L153.54-43.58Q161.92-43.58 166.14-39.52L166.14-39.52L166.14-39.52Q170.37-35.46 170.37-26.88L170.37-26.88L170.37-26.88Q170.37-13.82 163.71-6.21L163.71-6.21L163.71-6.21Q157.12 1.28 146.05 1.28L146.05 1.28L146.05 1.28Q137.41 1.28 133.22-3.04L133.22-3.04L133.22-3.04Q129.02-7.36 129.02-15.62ZM145.86-28.86L145.86-28.86L145.86-28.86Q142.98-17.34 142.98-8.26L142.98-8.26L142.98-8.26Q142.98-6.08 143.71-4.67L143.71-4.67L143.71-4.67Q144.45-3.26 146.40-3.26L146.40-3.26L146.40-3.26Q148.35-3.26 149.57-4.19L149.57-4.19L149.57-4.19Q150.78-5.12 151.74-7.23L151.74-7.23L151.74-7.23Q153.28-10.69 154.72-18.02L154.72-18.02L154.72-18.02Q156.16-25.34 156.29-28.38L156.29-28.38L156.29-28.38Q156.42-31.42 156.42-33.73L156.42-33.73L156.42-33.73Q156.42-36.03 155.71-37.50L155.71-37.50L155.71-37.50Q155.01-38.98 153.12-38.98L153.12-38.98L153.12-38.98Q151.23-38.98 149.95-37.82L149.95-37.82L149.95-37.82Q147.58-35.65 145.86-28.86Z" fill="#000"></path></g></g><style>text {
  font-size: 64px;
  font-family: Arial Black;
  dominant-baseline: central;
  text-anchor: middle;
}</style></svg>