<svg height="512" viewBox="0 0 128 128" width="512" xmlns="http://www.w3.org/2000/svg"><g><g><path d="m1.75 78.259c0-28.579 27.87-61.759 62.25-61.759s62.25 33.176 62.25 61.755-27.87 41.745-62.25 41.745-62.25-13.162-62.25-41.741z" fill="#fcf7ed"/><g fill="#474979"><path d="m117.205 48.64c10.318-11.593 12.117-27.045 3.785-35.377-8.754-8.754-25.368-6.333-37.108 5.407q-.581.58-1.129 1.177c14.492 5.236 26.696 16.101 34.452 28.793z"/><path d="m45.247 19.847c-.367-.4-.742-.79-1.129-1.177-11.74-11.74-28.354-14.161-37.108-5.407-8.332 8.337-6.533 23.784 3.79 35.377 7.751-12.692 19.955-23.557 34.447-28.793z"/><ellipse cx="91.235" cy="59.985" rx="13.781" ry="18.406" transform="matrix(.707 -.707 .707 .707 -15.694 82.082)"/><ellipse cx="36.765" cy="59.985" rx="18.406" ry="13.781" transform="matrix(.707 -.707 .707 .707 -31.648 43.566)"/></g><circle cx="42.168" cy="54.583" fill="#fcf7ed" r="4.687"/><circle cx="85.832" cy="54.583" fill="#fcf7ed" r="4.687"/><path d="m75.266 93-1.213.11a7.7 7.7 0 0 1 -8.314-6.808c0-.035-.016-.068-.021-.1l-.008-.035c2.714-.629 7.712-2.3 7.712-6.092 0-5.2-4.218-6.419-9.422-6.419s-9.422 1.216-9.422 6.419c0 3.794 5 5.463 7.711 6.092v.012c-.008.042-.022.082-.027.126a7.7 7.7 0 0 1 -8.312 6.808l-1.216-.113a1.75 1.75 0 0 0 -.315 3.486l1.214.11q.5.045 1 .045a11.246 11.246 0 0 0 9.367-5.103 11.245 11.245 0 0 0 9.37 5.107q.5 0 1-.045l1.214-.11a1.75 1.75 0 0 0 -.318-3.49z" fill="#474979"/></g><g><path d="m26.74 111.412c-1.537-.689-3.027-1.439-4.427-2.229a1.75 1.75 0 1 0 -1.719 3.049c1.493.842 3.079 1.641 4.714 2.373a1.732 1.732 0 0 0 .715.154 1.75 1.75 0 0 0 .717-3.347z"/><path d="m119.337 48.842c10.2-12.2 11.535-28.173 2.89-36.817-4.473-4.473-10.943-6.451-18.227-5.569a1.75 1.75 0 0 0 .422 3.475c6.181-.751 11.631.872 15.328 4.569 7.158 7.158 6.015 20.508-2.369 31.182a73.4 73.4 0 0 0 -8.1-10.223 68.107 68.107 0 0 0 -23.379-16.29 37.178 37.178 0 0 1 7.398-5.485 1.75 1.75 0 0 0 -1.7-3.056 40.873 40.873 0 0 0 -8.951 6.805c-.12.12-.233.245-.352.367a56.43 56.43 0 0 0 -36.584 0c-.119-.122-.232-.247-.353-.367a37.422 37.422 0 0 0 -20.66-10.884c-7.57-1.1-14.29.842-18.924 5.476-8.645 8.645-7.315 24.616 2.89 36.817-5.544 9.467-8.666 19.782-8.666 29.417 0 10.417 3.53 19.285 10.491 26.355a1.75 1.75 0 1 0 2.494-2.455c-6.294-6.393-9.485-14.434-9.485-23.9 0-27.179 26.987-60.006 60.5-60.006s60.5 32.827 60.5 60.006c0 12.937-5.852 23.061-17.393 30.092-10.629 6.474-25.535 9.9-43.107 9.9a107.907 107.907 0 0 1 -24.614-2.638 1.751 1.751 0 0 0 -.8 3.408 111.444 111.444 0 0 0 25.414 2.727c39.477 0 64-16.665 64-43.489 0-9.635-3.122-19.95-8.663-29.417zm-100.624-13.383a73.485 73.485 0 0 0 -8.1 10.223c-8.38-10.673-9.523-24.024-2.365-31.182 7.87-7.871 22.878-5.734 33.86 4.662a68.113 68.113 0 0 0 -23.395 16.297z"/><path d="m93.3 77.811a18.019 18.019 0 0 0 2.556.189 13.309 13.309 0 0 0 9.631-3.76c6.056-6.056 4.589-17.376-3.27-25.235a23.526 23.526 0 0 0 -13.046-6.844c-4.855-.7-9.186.571-12.189 3.574s-4.271 7.331-3.573 12.189a24.746 24.746 0 0 0 19.891 19.887zm-13.841-29.6a9.9 9.9 0 0 1 7.175-2.734 14.4 14.4 0 0 1 2.042.149 21.262 21.262 0 0 1 16.924 16.921c.537 3.74-.381 7.013-2.584 9.216s-5.474 3.12-9.217 2.584a21.26 21.26 0 0 1 -16.926-16.923c-.537-3.74.381-7.013 2.584-9.216z"/><path d="m51.018 45.733c-3-3-7.334-4.272-12.189-3.574a23.529 23.529 0 0 0 -13.046 6.841c-7.859 7.859-9.326 19.18-3.27 25.235a13.364 13.364 0 0 0 9.648 3.733c5.216 0 10.993-2.41 15.587-7 7.858-7.859 9.325-19.179 3.27-25.235zm-26.031 26.03c-4.69-4.691-3.223-13.791 3.271-20.286a20.03 20.03 0 0 1 11.069-5.854 14.389 14.389 0 0 1 2.041-.149 9.9 9.9 0 0 1 7.175 2.734c2.2 2.2 3.121 5.476 2.584 9.216a20.03 20.03 0 0 1 -5.854 11.069c-6.495 6.494-15.594 7.961-20.286 3.27z"/><path d="m64 71.907c-7.413 0-11.172 2.748-11.172 8.169 0 5.02 5.954 7.071 9.086 7.8a7.712 7.712 0 0 1 -7.966 5.236l-1.214-.112a1.75 1.75 0 0 0 -.315 3.486l1.214.11q.5.045 1 .045a11.246 11.246 0 0 0 9.367-5.103 11.245 11.245 0 0 0 9.37 5.107q.5 0 1-.045l1.214-.11a1.75 1.75 0 0 0 -.318-3.49l-1.213.11a7.705 7.705 0 0 1 -7.968-5.235c3.132-.732 9.087-2.783 9.087-7.8 0-5.42-3.759-8.168-11.172-8.168zm0 12.821c-2.221-.338-7.672-1.779-7.672-4.652 0-2.425.929-4.669 7.672-4.669s7.672 2.244 7.672 4.669c0 2.874-5.454 4.314-7.672 4.652z"/><path d="m42.168 48.145a6.438 6.438 0 1 0 6.437 6.438 6.445 6.445 0 0 0 -6.437-6.438zm0 9.375a2.938 2.938 0 1 1 2.937-2.937 2.941 2.941 0 0 1 -2.937 2.937z"/><path d="m92.269 54.583a6.438 6.438 0 1 0 -6.437 6.437 6.444 6.444 0 0 0 6.437-6.437zm-9.375 0a2.938 2.938 0 1 1 2.938 2.937 2.941 2.941 0 0 1 -2.938-2.937z"/></g></g></svg>